<svg width="263" height="56" viewBox="0 0 263 56" fill="none" xmlns="http://www.w3.org/2000/svg">
<mask id="mask0" mask-type="alpha" maskUnits="userSpaceOnUse" x="88" y="18" width="52" height="38">
<path fill-rule="evenodd" clip-rule="evenodd" d="M131.873 18.6767L139.593 36.0156L96.5367 55.1854L88.8169 37.8465L131.873 18.6767V18.6767Z" fill="white"/>
</mask>
<g mask="url(#mask0)">
<path fill-rule="evenodd" clip-rule="evenodd" d="M117.573 29.7332L111.55 35.0247C111.579 35.0664 111.621 35.1132 111.66 35.151C112.079 35.5895 112.592 35.712 113.261 35.5347C115.726 34.887 119.432 32.9516 119.468 32.9356C120.039 32.6373 120.751 32.8691 121.055 33.4571C121.36 34.0452 121.147 34.765 120.575 35.0634C120.41 35.148 116.61 37.1363 113.884 37.8453C111.18 38.5559 109.444 36.5984 108.938 35.1019C108.783 34.6339 108.909 34.1277 109.271 33.8132L116.017 27.8933C119.349 24.973 124.575 25.3003 124.793 25.3121C124.816 25.3133 124.846 25.3108 124.872 25.3213L134.821 26.6921C135.468 26.7772 135.929 27.3833 135.859 28.0398C135.805 28.4694 135.543 28.816 135.178 28.9785C134.99 29.0619 134.779 29.0906 134.556 29.069L124.659 27.7188C124.239 27.6866 120.082 27.5305 117.573 29.7332Z" fill="#147AC0"/>
<path fill-rule="evenodd" clip-rule="evenodd" d="M89.907 39.9377C90.0065 38.4996 91.1048 35.787 94.6149 35.8173C97.9351 35.8545 105.049 36.1502 105.124 36.15C105.78 36.1786 106.296 36.7344 106.283 37.4042C106.27 38.0735 105.728 38.5914 105.081 38.5589C105.006 38.5591 97.9321 38.2568 94.6471 38.2257C93.708 38.2123 93.0544 38.5033 92.6508 39.1145C92.6373 39.1317 92.6324 39.1451 92.6183 39.162L112.13 43.696C113.518 44.0183 114.978 43.7555 116.149 42.9903L128.22 35.0498C128.504 34.8681 128.854 34.8116 129.186 34.9071L133.742 36.2751C134.371 36.4596 134.746 37.1333 134.571 37.7759C134.471 38.13 134.229 38.4041 133.924 38.5396C133.683 38.6471 133.404 38.6716 133.12 38.588L129.083 37.3755L117.455 45.0314C115.765 46.1491 113.644 46.518 111.648 46.0568L90.8355 41.2281C90.2669 41.0831 89.8652 40.5426 89.907 39.9377Z" fill="#147AC0"/>
</g>
<mask id="mask1" mask-type="alpha" maskUnits="userSpaceOnUse" x="86" y="0" width="52" height="38">
<path fill-rule="evenodd" clip-rule="evenodd" d="M94.0991 37.3233L86.3794 19.9844L129.435 0.814625L137.155 18.1535L94.0991 37.3233V37.3233Z" fill="white"/>
</mask>
<g mask="url(#mask1)">
<path fill-rule="evenodd" clip-rule="evenodd" d="M108.4 26.2669L114.422 20.9754C114.393 20.9337 114.351 20.8869 114.312 20.8491C113.893 20.4106 113.38 20.2881 112.711 20.4654C110.246 21.1131 106.54 23.0485 106.504 23.0645C105.933 23.3628 105.221 23.131 104.917 22.5429C104.612 21.9549 104.825 21.2351 105.397 20.9366C105.562 20.8521 109.362 18.8638 112.088 18.1548C114.792 17.4441 116.528 19.4016 117.034 20.8982C117.189 21.3662 117.063 21.8724 116.701 22.1869L109.955 28.1068C106.623 31.0271 101.398 30.6998 101.179 30.688C101.157 30.6867 101.126 30.6893 101.1 30.6787L91.1507 29.308C90.5046 29.2228 90.0427 28.6168 90.1134 27.9603C90.1675 27.5307 90.4294 27.1841 90.7945 27.0215C90.9817 26.9382 91.1933 26.9095 91.4159 26.931L101.313 28.2813C101.734 28.3135 105.89 28.4696 108.4 26.2669Z" fill="#147AC0"/>
<path fill-rule="evenodd" clip-rule="evenodd" d="M136.065 16.0624C135.966 17.5004 134.867 20.2131 131.357 20.1828C128.037 20.1456 120.923 19.8499 120.848 19.8501C120.192 19.8215 119.676 19.2657 119.689 18.5959C119.702 17.9266 120.244 17.4087 120.891 17.4412C120.966 17.441 128.04 17.7433 131.325 17.7744C132.264 17.7877 132.918 17.4968 133.321 16.8855C133.335 16.8683 133.34 16.855 133.354 16.838L113.842 12.3041C112.454 11.9818 110.994 12.2445 109.823 13.0097L97.7524 20.9502C97.4685 21.132 97.1182 21.1884 96.7862 21.093L92.2302 19.7249C91.6012 19.5405 91.2259 18.8668 91.401 18.2242C91.5007 17.8701 91.7435 17.596 92.0478 17.4605C92.2894 17.353 92.5679 17.3285 92.8522 17.4121L96.8887 18.6246L108.517 10.9686C110.207 9.85101 112.328 9.48212 114.325 9.94327L135.137 14.772C135.705 14.917 136.107 15.4575 136.065 16.0624Z" fill="#147AC0"/>
</g>
<path fill-rule="evenodd" clip-rule="evenodd" d="M92.77 20.4628C93.8112 20.4628 94.6552 19.6131 94.6552 18.5649C94.6552 17.5166 93.8112 16.6669 92.77 16.6669C91.7288 16.6669 90.8848 17.5166 90.8848 18.5649C90.8848 19.6131 91.7288 20.4628 92.77 20.4628Z" fill="#147AC0"/>
<path fill-rule="evenodd" clip-rule="evenodd" d="M133.931 39.4425C134.972 39.4425 135.816 38.5928 135.816 37.5445C135.816 36.4963 134.972 35.6466 133.931 35.6466C132.89 35.6466 132.046 36.4963 132.046 37.5445C132.046 38.5928 132.89 39.4425 133.931 39.4425Z" fill="#147AC0"/>
<path fill-rule="evenodd" clip-rule="evenodd" d="M159.524 45.8814C159.524 46.9038 159.388 47.7448 159.116 48.4046C158.844 49.0644 158.478 49.5874 158.017 49.9738C157.556 50.3601 157.015 50.6306 156.395 50.7851C155.774 50.9397 155.11 51.0169 154.401 51.0169C153.692 51.0169 153.027 50.9397 152.406 50.7851C151.786 50.6306 151.245 50.3601 150.784 49.9738C150.324 49.5874 149.96 49.0644 149.694 48.4046C149.428 47.7448 149.295 46.9038 149.295 45.8814V37.9464C149.295 37.8513 149.331 37.7711 149.402 37.7057C149.473 37.6403 149.555 37.6076 149.65 37.6076H151.972C152.067 37.6076 152.149 37.6403 152.22 37.7057C152.291 37.7711 152.327 37.8513 152.327 37.9464V45.8814C152.327 46.3332 152.359 46.7225 152.424 47.0494C152.489 47.3763 152.601 47.6438 152.761 47.8518C152.92 48.0599 153.133 48.2144 153.399 48.3155C153.665 48.4165 153.999 48.467 154.401 48.467C154.802 48.467 155.136 48.4165 155.402 48.3155C155.668 48.2144 155.881 48.0599 156.04 47.8518C156.2 47.6438 156.315 47.3763 156.386 47.0494C156.457 46.7225 156.492 46.3332 156.492 45.8814V37.9464C156.492 37.8513 156.528 37.7711 156.599 37.7057C156.67 37.6403 156.752 37.6076 156.847 37.6076H159.151C159.246 37.6076 159.331 37.6403 159.408 37.7057C159.485 37.7711 159.524 37.8513 159.524 37.9464V45.8814ZM171.878 50.571C171.878 50.7612 171.778 50.8563 171.577 50.8563H169.095C169.001 50.8563 168.924 50.8266 168.865 50.7671C168.806 50.7077 168.764 50.6304 168.741 50.5353L168.103 47.6109H164.469L163.831 50.5353C163.807 50.6304 163.766 50.7077 163.706 50.7671C163.647 50.8266 163.571 50.8563 163.476 50.8563H160.994C160.793 50.8563 160.693 50.7612 160.693 50.571C160.693 50.5591 160.696 50.5472 160.702 50.5353C160.708 50.5234 160.711 50.5056 160.711 50.4818L163.352 39.4263C163.458 38.9983 163.612 38.6536 163.813 38.392C164.014 38.1305 164.247 37.9314 164.513 37.7947C164.779 37.658 165.065 37.5658 165.373 37.5183C165.68 37.4707 165.987 37.447 166.295 37.447C166.602 37.447 166.906 37.4707 167.207 37.5183C167.509 37.5658 167.792 37.658 168.058 37.7947C168.324 37.9314 168.558 38.1305 168.758 38.392C168.959 38.6536 169.113 38.9983 169.219 39.4263L171.861 50.4818C171.861 50.5056 171.864 50.5234 171.869 50.5353C171.875 50.5472 171.878 50.5591 171.878 50.571ZM166.526 40.2467C166.502 40.1516 166.478 40.0832 166.455 40.0416C166.431 40 166.378 39.9792 166.295 39.9792C166.165 39.9792 166.083 40.0684 166.047 40.2467L164.966 45.1682H167.607L166.526 40.2467ZM183.259 47.0225C183.259 47.8071 183.112 48.4579 182.816 48.9751C182.521 49.4922 182.122 49.9023 181.62 50.2054C181.117 50.5086 180.526 50.7196 179.847 50.8385C179.167 50.9573 178.444 51.0168 177.675 51.0168C177.38 51.0168 177.079 51.0108 176.771 50.9989C176.464 50.9871 176.166 50.9722 175.876 50.9544C175.587 50.9365 175.318 50.9157 175.07 50.892C174.822 50.8682 174.609 50.8385 174.432 50.8028C174.077 50.7434 173.826 50.6364 173.678 50.4818C173.53 50.3273 173.457 50.0479 173.457 49.6437V38.8022C173.457 38.398 173.527 38.1186 173.669 37.9641C173.811 37.8095 174.053 37.7025 174.396 37.6431C174.55 37.6193 174.748 37.5956 174.99 37.5718C175.232 37.548 175.498 37.5272 175.788 37.5094C176.077 37.4915 176.376 37.4767 176.683 37.4648C176.99 37.4529 177.285 37.447 177.569 37.447C178.408 37.447 179.17 37.5094 179.856 37.6342C180.541 37.759 181.129 37.9641 181.62 38.2494C182.11 38.5347 182.491 38.9151 182.763 39.3906C183.035 39.8661 183.171 40.4605 183.171 41.1738V41.4947C183.171 42.0772 183.041 42.6003 182.781 43.0639C182.521 43.5275 182.154 43.8782 181.682 44.116C182.154 44.3537 182.535 44.6985 182.825 45.1502C183.114 45.6019 183.259 46.1369 183.259 46.755V47.0225ZM180.246 41.3699C180.246 40.8825 180.066 40.5229 179.705 40.2911C179.345 40.0593 178.71 39.9434 177.8 39.9434H177.117C176.981 39.9434 176.851 39.9464 176.727 39.9523C176.603 39.9583 176.512 39.9612 176.453 39.9612V43.0461H178.438C178.792 43.0461 179.085 43.0075 179.315 42.9302C179.546 42.8529 179.729 42.7519 179.865 42.6271C180.001 42.5022 180.098 42.3536 180.157 42.1813C180.216 42.0089 180.246 41.8276 180.246 41.6374V41.3699ZM180.317 46.7553C180.317 46.3273 180.181 45.9559 179.909 45.6408C179.637 45.3258 179.147 45.1683 178.438 45.1683H176.453V48.5028H176.763C176.899 48.5028 177.04 48.5058 177.188 48.5117C177.336 48.5177 177.478 48.5206 177.614 48.5206H177.906C178.816 48.5206 179.445 48.3839 179.794 48.1105C180.143 47.8371 180.317 47.4507 180.317 46.9515V46.7553Z" fill="#3BAE6B"/>
<path fill-rule="evenodd" clip-rule="evenodd" d="M156.837 11.9811C156.837 12.6228 156.72 13.1567 156.487 13.583C156.253 14.0092 155.943 14.3507 155.558 14.6074C155.172 14.864 154.734 15.0451 154.244 15.1505C153.753 15.2559 153.251 15.3086 152.737 15.3086C152.572 15.3086 152.388 15.304 152.186 15.2949C151.985 15.2857 151.797 15.2765 151.622 15.2674V18.6086C151.622 18.6819 151.595 18.7461 151.54 18.8011C151.485 18.8561 151.421 18.8836 151.347 18.8836H149.572C149.499 18.8836 149.434 18.8584 149.379 18.808C149.324 18.7576 149.297 18.6957 149.297 18.6224V9.38235C149.297 9.14402 149.347 8.9836 149.448 8.9011C149.549 8.8186 149.705 8.75902 149.916 8.72235C150.265 8.66735 150.694 8.62381 151.203 8.59173C151.712 8.55964 152.214 8.5436 152.709 8.5436C153.232 8.5436 153.741 8.59402 154.237 8.69485C154.732 8.79568 155.172 8.97443 155.558 9.2311C155.943 9.48777 156.253 9.82922 156.487 10.2555C156.72 10.6817 156.837 11.2157 156.837 11.8574V11.9811ZM154.499 11.8578C154.499 11.3628 154.35 11.0122 154.052 10.806C153.754 10.5997 153.316 10.4966 152.738 10.4966C152.692 10.4966 152.614 10.4989 152.504 10.5035C152.394 10.508 152.281 10.5126 152.167 10.5172C152.052 10.5218 151.942 10.5264 151.836 10.531C151.731 10.5355 151.66 10.5378 151.623 10.5378V13.3428C151.66 13.3428 151.731 13.3451 151.836 13.3497C151.942 13.3543 152.057 13.3589 152.18 13.3635C152.304 13.368 152.419 13.3703 152.524 13.3703H152.738C153.352 13.3703 153.799 13.2557 154.079 13.0266C154.359 12.7974 154.499 12.4491 154.499 11.9816V11.8578ZM166.154 18.7186C166.154 18.8286 166.085 18.8836 165.947 18.8836H163.842C163.769 18.8836 163.714 18.8561 163.677 18.8011C163.64 18.7461 163.603 18.6819 163.567 18.6086L161.723 15.1298L161.572 15.1436C161.425 15.1436 161.257 15.139 161.069 15.1298C160.881 15.1207 160.723 15.1161 160.595 15.1161V18.6086C160.595 18.6819 160.567 18.7461 160.512 18.8011C160.457 18.8561 160.393 18.8836 160.319 18.8836H158.531C158.457 18.8836 158.393 18.8561 158.338 18.8011C158.283 18.7461 158.255 18.6819 158.255 18.6086V9.38233C158.255 9.144 158.306 8.98358 158.407 8.90108C158.508 8.81858 158.664 8.759 158.875 8.72233C159.031 8.69483 159.219 8.67191 159.439 8.65358C159.659 8.63525 159.893 8.61691 160.141 8.59858C160.388 8.58025 160.643 8.5665 160.904 8.55733C161.166 8.54816 161.42 8.54358 161.668 8.54358C162.255 8.54358 162.801 8.59629 163.305 8.7017C163.81 8.80712 164.248 8.98587 164.619 9.23795C164.991 9.49004 165.282 9.82233 165.493 10.2348C165.704 10.6473 165.81 11.1561 165.81 11.7611V11.9398C165.81 12.6732 165.64 13.2644 165.301 13.7136C164.961 14.1628 164.539 14.4882 164.035 14.6898L166.112 18.5673C166.14 18.6223 166.154 18.6728 166.154 18.7186ZM163.471 11.7615C163.471 11.3398 163.315 11.0305 163.003 10.8334C162.691 10.6363 162.246 10.5377 161.668 10.5377C161.622 10.5377 161.547 10.54 161.441 10.5446C161.336 10.5492 161.228 10.5538 161.118 10.5584C161.008 10.5629 160.902 10.5675 160.801 10.5721C160.7 10.5767 160.631 10.579 160.595 10.579V13.219C160.631 13.219 160.696 13.2213 160.787 13.2259C160.879 13.2305 160.978 13.235 161.083 13.2396C161.189 13.2442 161.287 13.2465 161.379 13.2465H161.572C161.93 13.2465 162.23 13.2213 162.473 13.1709C162.716 13.1205 162.911 13.0448 163.058 12.944C163.205 12.8432 163.31 12.7102 163.374 12.5452C163.439 12.3802 163.471 12.1786 163.471 11.9402V11.7615ZM175.235 14.5936C175.235 15.3911 175.13 16.0694 174.919 16.6286C174.708 17.1878 174.419 17.6438 174.052 17.9967C173.685 18.3496 173.254 18.6063 172.759 18.7667C172.263 18.9271 171.731 19.0073 171.163 19.0073C170.594 19.0073 170.062 18.9271 169.566 18.7667C169.071 18.6063 168.64 18.3496 168.273 17.9967C167.906 17.6438 167.617 17.1878 167.406 16.6286C167.195 16.0694 167.09 15.3911 167.09 14.5936V12.9573C167.09 12.1598 167.195 11.4815 167.406 10.9223C167.617 10.3632 167.906 9.90712 168.273 9.5542C168.64 9.20129 169.071 8.94462 169.566 8.7842C170.062 8.62379 170.594 8.54358 171.163 8.54358C171.731 8.54358 172.263 8.62379 172.759 8.7842C173.254 8.94462 173.685 9.20129 174.052 9.5542C174.419 9.90712 174.708 10.3632 174.919 10.9223C175.13 11.4815 175.235 12.1598 175.235 12.9573V14.5936ZM172.869 12.9574C172.869 12.1232 172.729 11.5228 172.449 11.1561C172.169 10.7894 171.741 10.6061 171.163 10.6061C170.585 10.6061 170.158 10.7894 169.883 11.1561C169.608 11.5228 169.47 12.1232 169.47 12.9574V14.5936C169.47 15.4278 169.608 16.0282 169.883 16.3949C170.158 16.7615 170.585 16.9449 171.163 16.9449C171.741 16.9449 172.169 16.7615 172.449 16.3949C172.729 16.0282 172.869 15.4278 172.869 14.5936V12.9574ZM183.945 10.5236C183.945 10.5969 183.927 10.645 183.89 10.668C183.854 10.6909 183.803 10.7023 183.739 10.7023H183.698L182.459 10.6336C181.964 10.6061 181.423 10.5923 180.835 10.5923C180.56 10.5923 180.31 10.629 180.086 10.7023C179.861 10.7757 179.67 10.9017 179.514 11.0805C179.359 11.2592 179.239 11.4998 179.157 11.8023C179.074 12.1048 179.033 12.4807 179.033 12.9298V14.6486C179.033 15.1253 179.081 15.5148 179.177 15.8173C179.274 16.1198 179.398 16.3582 179.549 16.5323C179.7 16.7065 179.868 16.8257 180.051 16.8898C180.235 16.954 180.409 16.9861 180.574 16.9861C180.95 16.9861 181.303 16.9723 181.634 16.9448V13.7823C181.634 13.709 181.659 13.6448 181.709 13.5898C181.76 13.5348 181.822 13.5073 181.895 13.5073H183.656C183.73 13.5073 183.794 13.5348 183.849 13.5898C183.904 13.6448 183.931 13.709 183.931 13.7823V18.4023C183.931 18.5765 183.84 18.6819 183.656 18.7186C183.28 18.7919 182.844 18.8584 182.349 18.918C181.854 18.9775 181.262 19.0073 180.574 19.0073C180.317 19.0073 180.04 18.9798 179.742 18.9248C179.443 18.8698 179.15 18.7782 178.861 18.6498C178.572 18.5215 178.294 18.3473 178.028 18.1273C177.762 17.9073 177.526 17.6369 177.32 17.3161C177.113 16.9953 176.951 16.6125 176.831 16.168C176.712 15.7234 176.652 15.2123 176.652 14.6348V12.9298C176.652 12.0498 176.776 11.328 177.024 10.7642C177.272 10.2005 177.595 9.75358 177.994 9.42358C178.393 9.09358 178.843 8.86441 179.342 8.73608C179.842 8.60775 180.34 8.54358 180.835 8.54358C181.523 8.54358 182.111 8.58254 182.597 8.66045C183.083 8.73837 183.454 8.80483 183.711 8.85983C183.867 8.88733 183.945 8.95608 183.945 9.06608V10.5236ZM193.701 18.7186C193.701 18.8286 193.633 18.8836 193.495 18.8836H191.39C191.316 18.8836 191.261 18.8561 191.225 18.8011C191.188 18.7461 191.151 18.6819 191.114 18.6086L189.271 15.1298L189.119 15.1436C188.972 15.1436 188.805 15.139 188.617 15.1298C188.429 15.1207 188.271 15.1161 188.142 15.1161V18.6086C188.142 18.6819 188.115 18.7461 188.06 18.8011C188.005 18.8561 187.94 18.8836 187.867 18.8836H186.078C186.005 18.8836 185.941 18.8561 185.886 18.8011C185.831 18.7461 185.803 18.6819 185.803 18.6086V9.38233C185.803 9.144 185.854 8.98358 185.954 8.90108C186.055 8.81858 186.211 8.759 186.422 8.72233C186.578 8.69483 186.766 8.67191 186.986 8.65358C187.207 8.63525 187.44 8.61691 187.688 8.59858C187.936 8.58025 188.19 8.5665 188.452 8.55733C188.713 8.54816 188.968 8.54358 189.216 8.54358C189.803 8.54358 190.348 8.59629 190.853 8.7017C191.358 8.80712 191.796 8.98587 192.167 9.23795C192.539 9.49004 192.83 9.82233 193.041 10.2348C193.252 10.6473 193.357 11.1561 193.357 11.7611V11.9398C193.357 12.6732 193.188 13.2644 192.848 13.7136C192.509 14.1628 192.087 14.4882 191.582 14.6898L193.66 18.5673C193.688 18.6223 193.701 18.6728 193.701 18.7186ZM191.018 11.7615C191.018 11.3398 190.862 11.0305 190.55 10.8334C190.239 10.6363 189.794 10.5377 189.216 10.5377C189.17 10.5377 189.094 10.54 188.989 10.5446C188.883 10.5492 188.775 10.5538 188.665 10.5584C188.555 10.5629 188.45 10.5675 188.349 10.5721C188.248 10.5767 188.179 10.579 188.142 10.579V13.219C188.179 13.219 188.243 13.2213 188.335 13.2259C188.427 13.2305 188.525 13.235 188.631 13.2396C188.736 13.2442 188.835 13.2465 188.927 13.2465H189.119C189.477 13.2465 189.778 13.2213 190.021 13.1709C190.264 13.1205 190.459 13.0448 190.605 12.944C190.752 12.8432 190.858 12.7102 190.922 12.5452C190.986 12.3802 191.018 12.1786 191.018 11.9402V11.7615ZM203.141 18.6636C203.141 18.8103 203.063 18.8836 202.907 18.8836H200.981C200.907 18.8836 200.847 18.8607 200.802 18.8148C200.756 18.769 200.724 18.7094 200.705 18.6361L200.21 16.3811H197.389L196.894 18.6361C196.875 18.7094 196.843 18.769 196.797 18.8148C196.752 18.8607 196.692 18.8836 196.619 18.8836H194.692C194.536 18.8836 194.458 18.8103 194.458 18.6636C194.458 18.6544 194.461 18.6453 194.465 18.6361C194.47 18.6269 194.472 18.6132 194.472 18.5948L196.522 10.0698C196.605 9.73983 196.724 9.474 196.88 9.27233C197.036 9.07066 197.217 8.91712 197.424 8.8117C197.63 8.70629 197.852 8.63525 198.091 8.59858C198.329 8.56191 198.568 8.54358 198.806 8.54358C199.045 8.54358 199.281 8.56191 199.515 8.59858C199.749 8.63525 199.969 8.70629 200.176 8.8117C200.382 8.91712 200.563 9.07066 200.719 9.27233C200.875 9.474 200.994 9.73983 201.077 10.0698L203.127 18.5948C203.127 18.6132 203.129 18.6269 203.134 18.6361C203.139 18.6453 203.141 18.6544 203.141 18.6636ZM198.985 10.7028C198.966 10.6295 198.948 10.5768 198.93 10.5447C198.911 10.5126 198.87 10.4966 198.806 10.4966C198.705 10.4966 198.641 10.5653 198.613 10.7028L197.774 14.4978H199.824L198.985 10.7028ZM213.667 18.6913C213.667 18.7646 213.642 18.815 213.591 18.8425C213.541 18.87 213.488 18.8838 213.433 18.8838H211.617C211.552 18.8838 211.5 18.8563 211.458 18.8013C211.417 18.7463 211.396 18.6821 211.396 18.6088V12.875C211.396 12.8017 211.373 12.765 211.328 12.765C211.291 12.765 211.254 12.7971 211.218 12.8613L209.979 15.13C209.887 15.2859 209.75 15.3638 209.566 15.3638H208.465C208.282 15.3638 208.144 15.2859 208.053 15.13L206.814 12.8613C206.778 12.7971 206.741 12.765 206.704 12.765C206.658 12.765 206.635 12.8017 206.635 12.875V18.6088C206.635 18.6821 206.615 18.7463 206.573 18.8013C206.532 18.8563 206.479 18.8838 206.415 18.8838H204.599C204.544 18.8838 204.491 18.87 204.441 18.8425C204.39 18.815 204.365 18.7646 204.365 18.6913V9.13502C204.365 8.98835 204.411 8.87377 204.503 8.79127C204.594 8.70877 204.714 8.66752 204.86 8.66752H206.154C206.429 8.66752 206.631 8.79127 206.759 9.03877L208.865 12.9575C208.92 13.0767 208.97 13.1363 209.016 13.1363C209.053 13.1363 209.103 13.0767 209.167 12.9575L211.273 9.03877C211.401 8.79127 211.603 8.66752 211.878 8.66752H213.171C213.318 8.66752 213.437 8.71106 213.529 8.79814C213.621 8.88523 213.667 9.0021 213.667 9.14877V18.6913ZM223.574 18.6636C223.574 18.8103 223.496 18.8836 223.34 18.8836H221.414C221.34 18.8836 221.281 18.8607 221.235 18.8148C221.189 18.769 221.157 18.7094 221.139 18.6361L220.643 16.3811H217.822L217.327 18.6361C217.309 18.7094 217.277 18.769 217.231 18.8148C217.185 18.8607 217.125 18.8836 217.052 18.8836H215.125C214.969 18.8836 214.891 18.8103 214.891 18.6636C214.891 18.6544 214.894 18.6453 214.898 18.6361C214.903 18.6269 214.905 18.6132 214.905 18.5948L216.955 10.0698C217.038 9.73983 217.157 9.474 217.313 9.27233C217.469 9.07066 217.65 8.91712 217.857 8.8117C218.063 8.70629 218.286 8.63525 218.524 8.59858C218.763 8.56191 219.001 8.54358 219.24 8.54358C219.478 8.54358 219.714 8.56191 219.948 8.59858C220.182 8.63525 220.402 8.70629 220.609 8.8117C220.815 8.91712 220.996 9.07066 221.152 9.27233C221.308 9.474 221.427 9.73983 221.51 10.0698L223.56 18.5948C223.56 18.6132 223.563 18.6269 223.567 18.6361C223.572 18.6453 223.574 18.6544 223.574 18.6636ZM219.419 10.7028C219.401 10.6295 219.382 10.5768 219.364 10.5447C219.346 10.5126 219.304 10.4966 219.24 10.4966C219.139 10.4966 219.075 10.5653 219.047 10.7028L218.208 14.4978H220.258L219.419 10.7028ZM157.017 29.2718C157.017 29.9959 156.916 30.6307 156.714 31.1761C156.512 31.7216 156.223 32.1753 155.847 32.5374C155.471 32.8995 155.012 33.1699 154.471 33.3487C153.93 33.5274 153.315 33.6168 152.627 33.6168C152.343 33.6168 152.056 33.6099 151.767 33.5962C151.478 33.5824 151.203 33.5664 150.942 33.548C150.68 33.5297 150.442 33.5091 150.226 33.4862C150.011 33.4632 149.834 33.438 149.696 33.4105C149.568 33.3922 149.469 33.3464 149.401 33.273C149.332 33.1997 149.297 33.0851 149.297 32.9293V23.8405C149.297 23.6847 149.332 23.5701 149.401 23.4968C149.469 23.4234 149.568 23.3776 149.696 23.3593C149.834 23.3318 150.011 23.3066 150.226 23.2836C150.442 23.2607 150.68 23.2401 150.942 23.2218C151.203 23.2034 151.478 23.1874 151.767 23.1736C152.056 23.1599 152.343 23.153 152.627 23.153C153.315 23.153 153.93 23.2424 154.471 23.4211C155.012 23.5999 155.471 23.8703 155.847 24.2324C156.223 24.5945 156.512 25.0482 156.714 25.5936C156.916 26.1391 157.017 26.7739 157.017 27.498V29.2718ZM154.664 27.4978C154.664 27.0303 154.616 26.6453 154.519 26.3428C154.423 26.0403 154.285 25.7997 154.107 25.621C153.928 25.4422 153.714 25.3185 153.467 25.2497C153.219 25.181 152.939 25.1466 152.627 25.1466C152.453 25.1466 152.272 25.1489 152.084 25.1535C151.896 25.158 151.751 25.1649 151.65 25.1741V31.5953C151.751 31.6045 151.896 31.6114 152.084 31.616C152.272 31.6205 152.453 31.6228 152.627 31.6228C152.939 31.6228 153.219 31.5885 153.467 31.5197C153.714 31.451 153.928 31.3272 154.107 31.1485C154.285 30.9697 154.423 30.7291 154.519 30.4266C154.616 30.1241 154.664 29.7391 154.664 29.2716V27.4978ZM164.929 33.1493C164.929 33.3143 164.838 33.4105 164.654 33.438C164.416 33.4747 164.097 33.5137 163.698 33.5549C163.299 33.5962 162.728 33.6168 161.985 33.6168C161.544 33.6168 161.122 33.5801 160.719 33.5068C160.315 33.4334 159.96 33.2914 159.652 33.0805C159.345 32.8697 159.1 32.5695 158.916 32.1799C158.733 31.7903 158.641 31.2839 158.641 30.6605V26.0955C158.641 25.4722 158.733 24.968 158.916 24.583C159.1 24.198 159.345 23.9001 159.652 23.6893C159.96 23.4784 160.317 23.3364 160.726 23.263C161.134 23.1897 161.558 23.153 161.998 23.153C162.365 23.153 162.689 23.1599 162.968 23.1736C163.248 23.1874 163.494 23.2034 163.705 23.2218C163.916 23.2401 164.097 23.2584 164.248 23.2768C164.399 23.2951 164.535 23.3134 164.654 23.3318C164.838 23.3593 164.929 23.4509 164.929 23.6068V24.8855C164.929 24.9589 164.902 25.023 164.847 25.078C164.792 25.133 164.727 25.1605 164.654 25.1605H161.861C161.54 25.1605 161.313 25.227 161.18 25.3599C161.047 25.4928 160.98 25.738 160.98 26.0955V27.3468H164.544C164.617 27.3468 164.682 27.3743 164.737 27.4293C164.792 27.4843 164.819 27.5484 164.819 27.6218V28.928C164.819 29.0014 164.792 29.0655 164.737 29.1205C164.682 29.1755 164.617 29.203 164.544 29.203H160.98V30.6605C160.98 31.018 161.047 31.2632 161.18 31.3962C161.313 31.5291 161.54 31.5955 161.861 31.5955H164.654C164.727 31.5955 164.792 31.623 164.847 31.678C164.902 31.733 164.929 31.7972 164.929 31.8705V33.1493ZM178.221 33.273C178.221 33.4197 178.143 33.493 177.987 33.493H176.061C175.987 33.493 175.928 33.4701 175.882 33.4243C175.836 33.3784 175.804 33.3189 175.786 33.2455L175.29 30.9905H172.469L171.974 33.2455C171.956 33.3189 171.924 33.3784 171.878 33.4243C171.832 33.4701 171.772 33.493 171.699 33.493H169.772C169.617 33.493 169.539 33.4197 169.539 33.273C169.539 33.2639 169.541 33.2547 169.545 33.2455C169.55 33.2364 169.552 33.2226 169.552 33.2043L171.603 24.6793C171.685 24.3493 171.804 24.0834 171.96 23.8818C172.116 23.6801 172.297 23.5266 172.504 23.4211C172.71 23.3157 172.933 23.2447 173.171 23.208C173.41 23.1714 173.648 23.153 173.887 23.153C174.125 23.153 174.361 23.1714 174.595 23.208C174.829 23.2447 175.049 23.3157 175.256 23.4211C175.462 23.5266 175.643 23.6801 175.799 23.8818C175.955 24.0834 176.075 24.3493 176.157 24.6793L178.207 33.2043C178.207 33.2226 178.21 33.2364 178.214 33.2455C178.219 33.2547 178.221 33.2639 178.221 33.273ZM174.065 25.3117C174.047 25.2383 174.029 25.1856 174.01 25.1535C173.992 25.1215 173.951 25.1054 173.887 25.1054C173.786 25.1054 173.721 25.1742 173.694 25.3117L172.855 29.1067H174.905L174.065 25.3117ZM185.362 33.0668C185.362 33.1676 185.337 33.2387 185.287 33.2799C185.236 33.3212 185.161 33.3555 185.06 33.383C184.913 33.4289 184.656 33.4793 184.289 33.5343C183.922 33.5893 183.496 33.6168 183.009 33.6168C182.487 33.6168 181.98 33.5434 181.489 33.3968C180.998 33.2501 180.565 33.0049 180.189 32.6611C179.813 32.3174 179.51 31.8659 179.281 31.3068C179.051 30.7476 178.937 30.0601 178.937 29.2443V27.5118C178.937 26.6959 179.051 26.0084 179.281 25.4493C179.51 24.8901 179.813 24.4409 180.189 24.1018C180.565 23.7626 180.998 23.5197 181.489 23.373C181.98 23.2264 182.487 23.153 183.009 23.153C183.496 23.153 183.922 23.1805 184.289 23.2355C184.656 23.2905 184.913 23.3409 185.06 23.3868C185.161 23.4143 185.236 23.4464 185.287 23.483C185.337 23.5197 185.362 23.5884 185.362 23.6893V25.023C185.362 25.2064 185.275 25.298 185.101 25.298H185.06C184.794 25.2797 184.484 25.2568 184.131 25.2293C183.778 25.2018 183.409 25.188 183.023 25.188C182.785 25.188 182.562 25.2224 182.356 25.2911C182.149 25.3599 181.968 25.4836 181.812 25.6624C181.656 25.8411 181.535 26.0795 181.448 26.3774C181.361 26.6753 181.317 27.0534 181.317 27.5118V29.2443C181.317 29.7026 181.361 30.0807 181.448 30.3786C181.535 30.6766 181.656 30.9149 181.812 31.0936C181.968 31.2724 182.149 31.3961 182.356 31.4649C182.562 31.5336 182.785 31.568 183.023 31.568C183.409 31.568 183.778 31.5543 184.131 31.5268C184.484 31.4993 184.794 31.4764 185.06 31.458H185.101C185.275 31.458 185.362 31.5497 185.362 31.733V33.0668ZM194.513 29.203C194.513 30.0005 194.408 30.6789 194.197 31.238C193.986 31.7972 193.697 32.2532 193.33 32.6062C192.963 32.9591 192.532 33.2157 192.037 33.3762C191.541 33.5366 191.009 33.6168 190.44 33.6168C189.872 33.6168 189.34 33.5366 188.844 33.3762C188.349 33.2157 187.918 32.9591 187.551 32.6062C187.184 32.2532 186.895 31.7972 186.684 31.238C186.473 30.6789 186.367 30.0005 186.367 29.203V27.5668C186.367 26.7693 186.473 26.0909 186.684 25.5318C186.895 24.9726 187.184 24.5166 187.551 24.1636C187.918 23.8107 188.349 23.5541 188.844 23.3936C189.34 23.2332 189.872 23.153 190.44 23.153C191.009 23.153 191.541 23.2332 192.037 23.3936C192.532 23.5541 192.963 23.8107 193.33 24.1636C193.697 24.5166 193.986 24.9726 194.197 25.5318C194.408 26.0909 194.513 26.7693 194.513 27.5668V29.203ZM192.146 27.5666C192.146 26.7325 192.006 26.1321 191.727 25.7654C191.447 25.3987 191.018 25.2154 190.44 25.2154C189.862 25.2154 189.436 25.3987 189.16 25.7654C188.885 26.1321 188.748 26.7325 188.748 27.5666V29.2029C188.748 30.0371 188.885 30.6375 189.16 31.0041C189.436 31.3708 189.862 31.5541 190.44 31.5541C191.018 31.5541 191.447 31.3708 191.727 31.0041C192.006 30.6375 192.146 30.0371 192.146 29.2029V27.5666ZM202.081 33.1495C202.081 33.3053 201.989 33.4015 201.806 33.4382C201.696 33.4657 201.549 33.4886 201.366 33.507C201.182 33.5253 200.987 33.5436 200.781 33.562C200.574 33.5803 200.366 33.594 200.155 33.6032C199.944 33.6124 199.746 33.617 199.563 33.617C199.123 33.617 198.698 33.5803 198.29 33.507C197.882 33.4336 197.524 33.2915 197.217 33.0807C196.91 32.8699 196.664 32.5697 196.481 32.1801C196.297 31.7905 196.206 31.284 196.206 30.6607V23.552C196.206 23.4786 196.233 23.4145 196.288 23.3595C196.343 23.3045 196.407 23.277 196.481 23.277H198.283C198.357 23.277 198.421 23.3045 198.476 23.3595C198.531 23.4145 198.559 23.4786 198.559 23.552V30.6607C198.559 31.0182 198.625 31.2634 198.758 31.3963C198.891 31.5293 199.118 31.5957 199.439 31.5957H201.806C201.879 31.5957 201.944 31.6232 201.999 31.6782C202.054 31.7332 202.081 31.7974 202.081 31.8707V33.1495ZM211.452 33.2182C211.452 33.2915 211.424 33.3557 211.369 33.4107C211.314 33.4657 211.25 33.4932 211.177 33.4932H209.374C209.301 33.4932 209.237 33.4657 209.182 33.4107C209.127 33.3557 209.099 33.2915 209.099 33.2182V29.2445H205.7V33.2182C205.7 33.2915 205.673 33.3557 205.618 33.4107C205.563 33.4657 205.498 33.4932 205.425 33.4932H203.623C203.549 33.4932 203.485 33.4657 203.43 33.4107C203.375 33.3557 203.347 33.2915 203.347 33.2182V23.5382C203.347 23.4649 203.375 23.403 203.43 23.3526C203.485 23.3022 203.549 23.277 203.623 23.277H205.425C205.498 23.277 205.563 23.3022 205.618 23.3526C205.673 23.403 205.7 23.4649 205.7 23.5382V27.1957H209.099V23.5382C209.099 23.4649 209.127 23.403 209.182 23.3526C209.237 23.3022 209.301 23.277 209.374 23.277H211.177C211.25 23.277 211.314 23.3022 211.369 23.3526C211.424 23.403 211.452 23.4649 211.452 23.5382V33.2182ZM215.731 33.2182C215.731 33.2915 215.706 33.3557 215.655 33.4107C215.605 33.4657 215.543 33.4932 215.47 33.4932H213.626C213.552 33.4932 213.493 33.4657 213.447 33.4107C213.401 33.3557 213.378 33.2915 213.378 33.2182V23.5382C213.378 23.364 213.461 23.277 213.626 23.277H215.47C215.644 23.277 215.731 23.364 215.731 23.5382V33.2182ZM226.959 33.3007C226.959 33.374 226.934 33.4245 226.883 33.452C226.833 33.4795 226.78 33.4932 226.725 33.4932H224.909C224.845 33.4932 224.792 33.4657 224.751 33.4107C224.709 33.3557 224.689 33.2915 224.689 33.2182V27.4845C224.689 27.4111 224.666 27.3745 224.62 27.3745C224.583 27.3745 224.547 27.4065 224.51 27.4707L223.271 29.7395C223.18 29.8953 223.042 29.9732 222.859 29.9732H221.758C221.574 29.9732 221.437 29.8953 221.345 29.7395L220.107 27.4707C220.07 27.4065 220.033 27.3745 219.997 27.3745C219.951 27.3745 219.928 27.4111 219.928 27.4845V33.2182C219.928 33.2915 219.907 33.3557 219.866 33.4107C219.825 33.4657 219.772 33.4932 219.708 33.4932H217.891C217.836 33.4932 217.783 33.4795 217.733 33.452C217.683 33.4245 217.657 33.374 217.657 33.3007V23.7445C217.657 23.5978 217.703 23.4832 217.795 23.4007C217.887 23.3182 218.006 23.277 218.153 23.277H219.446C219.721 23.277 219.923 23.4007 220.052 23.6482L222.157 27.567C222.212 27.6861 222.262 27.7457 222.308 27.7457C222.345 27.7457 222.395 27.6861 222.46 27.567L224.565 23.6482C224.693 23.4007 224.895 23.277 225.17 23.277H226.464C226.611 23.277 226.73 23.3205 226.822 23.4076C226.913 23.4947 226.959 23.6115 226.959 23.7582V33.3007ZM235.133 33.1493C235.133 33.3143 235.041 33.4105 234.858 33.438C234.619 33.4747 234.3 33.5137 233.901 33.5549C233.502 33.5962 232.931 33.6168 232.188 33.6168C231.748 33.6168 231.326 33.5801 230.922 33.5068C230.519 33.4334 230.163 33.2914 229.856 33.0805C229.549 32.8697 229.303 32.5695 229.12 32.1799C228.936 31.7903 228.844 31.2839 228.844 30.6605V26.0955C228.844 25.4722 228.936 24.968 229.12 24.583C229.303 24.198 229.549 23.9001 229.856 23.6893C230.163 23.4784 230.521 23.3364 230.929 23.263C231.337 23.1897 231.762 23.153 232.202 23.153C232.569 23.153 232.892 23.1599 233.172 23.1736C233.452 23.1874 233.697 23.2034 233.908 23.2218C234.119 23.2401 234.3 23.2584 234.452 23.2768C234.603 23.2951 234.738 23.3134 234.858 23.3318C235.041 23.3593 235.133 23.4509 235.133 23.6068V24.8855C235.133 24.9589 235.105 25.023 235.05 25.078C234.995 25.133 234.931 25.1605 234.858 25.1605H232.064C231.743 25.1605 231.516 25.227 231.383 25.3599C231.25 25.4928 231.184 25.738 231.184 26.0955V27.3468H234.748C234.821 27.3468 234.885 27.3743 234.94 27.4293C234.995 27.4843 235.023 27.5484 235.023 27.6218V28.928C235.023 29.0014 234.995 29.0655 234.94 29.1205C234.885 29.1755 234.821 29.203 234.748 29.203H231.184V30.6605C231.184 31.018 231.25 31.2632 231.383 31.3962C231.516 31.5291 231.743 31.5955 232.064 31.5955H234.858C234.931 31.5955 234.995 31.623 235.05 31.678C235.105 31.733 235.133 31.7972 235.133 31.8705V33.1493ZM244.971 32.9707C244.971 33.1174 244.919 33.2411 244.813 33.342C244.708 33.4428 244.581 33.4932 244.435 33.4932H243.086C242.939 33.4932 242.811 33.468 242.701 33.4176C242.591 33.3672 242.481 33.2503 242.371 33.067L239.233 27.6495C239.187 27.5761 239.146 27.5395 239.11 27.5395C239.064 27.5395 239.041 27.5761 239.041 27.6495V33.2182C239.041 33.2915 239.013 33.3557 238.958 33.4107C238.903 33.4657 238.839 33.4932 238.766 33.4932H237.142C237.068 33.4932 237.004 33.4657 236.949 33.4107C236.894 33.3557 236.867 33.2915 236.867 33.2182V23.7995C236.867 23.6528 236.917 23.529 237.018 23.4282C237.119 23.3274 237.243 23.277 237.389 23.277H238.779C238.917 23.277 239.027 23.3113 239.11 23.3801C239.192 23.4488 239.275 23.5565 239.357 23.7032L242.618 29.3682C242.664 29.4415 242.701 29.4782 242.728 29.4782C242.774 29.4782 242.797 29.437 242.797 29.3545V23.5382C242.797 23.4649 242.825 23.403 242.88 23.3526C242.935 23.3022 242.999 23.277 243.072 23.277H244.696C244.769 23.277 244.834 23.3022 244.889 23.3526C244.944 23.403 244.971 23.4649 244.971 23.5382V32.9707ZM253.31 24.9545C253.31 25.0278 253.28 25.0897 253.221 25.1401C253.161 25.1905 253.095 25.2157 253.021 25.2157H250.792V33.2182C250.792 33.2915 250.764 33.3557 250.709 33.4107C250.654 33.4657 250.59 33.4932 250.517 33.4932H248.714C248.641 33.4932 248.577 33.4657 248.522 33.4107C248.467 33.3557 248.439 33.2915 248.439 33.2182V25.2157H246.196C246.123 25.2157 246.059 25.1905 246.004 25.1401C245.948 25.0897 245.921 25.0278 245.921 24.9545V23.5382C245.921 23.4649 245.948 23.403 246.004 23.3526C246.059 23.3022 246.123 23.277 246.196 23.277H253.021C253.095 23.277 253.161 23.3022 253.221 23.3526C253.28 23.403 253.31 23.4649 253.31 23.5382V24.9545ZM262.116 29.203C262.116 30.0005 262.011 30.6789 261.8 31.238C261.589 31.7972 261.3 32.2532 260.933 32.6062C260.566 32.9591 260.135 33.2157 259.639 33.3762C259.144 33.5366 258.612 33.6168 258.043 33.6168C257.474 33.6168 256.942 33.5366 256.447 33.3762C255.952 33.2157 255.52 32.9591 255.153 32.6062C254.787 32.2532 254.498 31.7972 254.287 31.238C254.076 30.6789 253.97 30.0005 253.97 29.203V27.5668C253.97 26.7693 254.076 26.0909 254.287 25.5318C254.498 24.9726 254.787 24.5166 255.153 24.1636C255.52 23.8107 255.952 23.5541 256.447 23.3936C256.942 23.2332 257.474 23.153 258.043 23.153C258.612 23.153 259.144 23.2332 259.639 23.3936C260.135 23.5541 260.566 23.8107 260.933 24.1636C261.3 24.5166 261.589 24.9726 261.8 25.5318C262.011 26.0909 262.116 26.7693 262.116 27.5668V29.203ZM259.75 27.5666C259.75 26.7325 259.61 26.1321 259.33 25.7654C259.05 25.3987 258.621 25.2154 258.043 25.2154C257.465 25.2154 257.039 25.3987 256.764 25.7654C256.488 26.1321 256.351 26.7325 256.351 27.5666V29.2029C256.351 30.0371 256.488 30.6375 256.764 31.0041C257.039 31.3708 257.465 31.5541 258.043 31.5541C258.621 31.5541 259.05 31.3708 259.33 31.0041C259.61 30.6375 259.75 30.0371 259.75 29.2029V27.5666Z" fill="#3BAE6B"/>
<path fill-rule="evenodd" clip-rule="evenodd" d="M11.3929 50.672C10.067 51.3074 9.25523 51.6863 8.05118 51.6863C6.12993 51.6863 4.76355 50.51 4.76355 48.8604C4.76355 47.2247 6.14352 46.062 8.10531 46.062C9.24171 46.062 10.27 46.4405 11.2847 47.0085V44.9533C10.3783 44.4126 9.22827 44.1422 7.94298 44.1422C4.41185 44.1422 2.396 46.4405 2.396 48.901C2.396 51.2806 4.18187 53.6057 7.76706 53.6057C9.13352 53.6057 10.1077 53.349 11.393 52.6865V50.672H11.3929Z" fill="#0095DA"/>
<path fill-rule="evenodd" clip-rule="evenodd" d="M20.2662 44.2753H17.601L13.8804 53.4956H16.3156L17.0057 51.6705H21.1321L21.8898 53.4956H24.3656L20.2662 44.2753ZM20.4558 50.0617H17.6147L18.9677 46.4791L20.4558 50.0617Z" fill="#0095DA"/>
<path fill-rule="evenodd" clip-rule="evenodd" d="M26.4951 44.2753V53.4956H28.7951V49.7913H30.6215C32.7457 49.7913 33.6656 48.3041 33.6656 47.0063C33.6656 45.749 32.7186 44.2753 30.6079 44.2753H26.4951ZM28.7954 45.9654H29.607C30.8518 45.9654 31.2982 46.2493 31.2982 47.0333C31.2982 47.723 30.9194 48.1015 29.8642 48.1015H28.7953V45.9654H28.7954Z" fill="#0095DA"/>
<path fill-rule="evenodd" clip-rule="evenodd" d="M42.7573 51.8056H38.2521V49.5885H42.4597V47.8987H38.2521V45.9653H42.6626V44.2753H35.9521V53.4956H42.7573V51.8056Z" fill="#0095DA"/>
<path fill-rule="evenodd" clip-rule="evenodd" d="M53.0263 44.8702C51.8628 44.3699 50.9291 44.1536 49.901 44.1536C47.7633 44.1536 46.3833 45.208 46.3833 46.8033C46.3833 50.1156 51.078 49.5615 51.078 51.0754C51.078 51.6163 50.6043 51.9273 49.7249 51.9273C48.7102 51.9273 47.8985 51.6163 46.5729 50.7375V52.7249C47.4926 53.1981 48.291 53.6173 49.9009 53.6173C51.9574 53.6173 53.4456 52.5898 53.4456 50.8186C53.4456 47.6011 48.751 47.9932 48.751 46.6007C48.751 46.141 49.2786 45.8434 50.1039 45.8434C50.8886 45.8434 51.6869 46.0734 53.0263 46.6682V44.8702Z" fill="#0095DA"/>
<path fill-rule="evenodd" clip-rule="evenodd" d="M52.9356 26.5055L52.9358 26.5051L52.938 26.5028C53.0834 26.2537 53.2324 25.9617 53.3739 25.6285C53.5144 25.2978 53.6405 24.942 53.7386 24.5689C54.2492 22.6241 54.0889 19.9926 51.5049 17.3732L51.4966 17.3649C51.0062 16.8686 50.4767 16.4125 49.9126 15.9955C49.3516 15.5807 48.7505 15.2018 48.1144 14.8577C44.8398 13.0859 40.7581 12.3311 36.5034 12.4092V12.4093L36.4856 12.4096C36.411 12.4117 36.2051 12.4214 35.8903 12.439C35.6074 12.455 35.2238 12.4792 34.7568 12.5132C33.6159 12.5961 32.1041 12.7128 30.9837 12.8218C32.8571 13.1686 34.5917 13.548 36.2905 14.0487C38.5958 14.7282 40.8343 15.6307 43.2611 16.9764C43.6148 17.1724 43.9531 17.3691 44.2767 17.5661C48.1877 19.9462 50.143 22.4833 50.9523 24.7681C51.4601 26.2012 51.5195 27.5376 51.3248 28.6825C51.37 28.6342 51.4147 28.5855 51.4596 28.5361C51.9927 27.9459 52.4881 27.2736 52.9363 26.5059L52.9356 26.5055ZM18.0971 36.7895L18.114 36.7928C18.7198 36.916 19.3609 37.021 20.035 37.1071C20.7183 37.1944 21.4214 37.2607 22.141 37.3053C25.9073 37.5386 30.4064 37.2193 35.3426 36.2038V36.2034L35.3437 36.2031H35.346C35.823 36.1049 36.273 36.0057 36.6941 35.9063C37.1049 35.8095 37.5487 35.6974 38.0206 35.572C38.1101 35.5482 38.1995 35.5241 38.2885 35.4998C37.5506 35.5479 36.8442 35.5774 36.1804 35.5983L36.1726 35.5985C35.0031 35.6353 33.7961 35.6236 32.5738 35.5738C31.3566 35.5243 30.1175 35.4356 28.881 35.3188C22.5493 34.7194 16.3762 33.3711 13.4621 32.6087C12.6974 32.4087 11.9775 32.2093 11.3007 32.0079C11.0258 31.9261 10.7543 31.8425 10.4857 31.7573C10.6305 32.0636 10.7999 32.3684 10.9975 32.6673C12.1444 34.4017 14.2695 36.0084 18.0971 36.7895ZM49.4364 26.7974C49.5304 27.8258 49.3289 28.708 48.9312 29.4734C48.5357 30.2353 47.9407 30.8935 47.2445 31.4723C46.3108 31.8634 45.3447 32.1467 44.3772 32.3654C43.3634 32.5944 42.3679 32.7495 41.4101 32.8814C38.8454 33.2349 36.4445 33.3872 34.2217 33.405C31.9961 33.4226 29.9439 33.3056 28.0812 33.1202C24.983 32.8117 22.402 32.3121 20.4186 31.928C20.0438 31.8554 19.6925 31.7874 19.2736 31.7093L19.2691 31.707L19.2677 31.7067L19.2675 31.7081C17.0012 31.2851 15.119 30.8793 13.5113 30.4657C12.065 30.0937 10.8525 29.7177 9.79153 29.3192C9.67693 28.372 9.73705 27.5417 9.82955 26.9658C9.85038 26.836 9.87115 26.7261 9.89086 26.6355C9.91022 26.5465 9.93049 26.4665 9.94999 26.3979L9.95049 26.398L9.95063 26.3972V26.3949C10.8378 23.2731 12.717 20.4757 14.9711 18.1253C15.4143 17.6633 15.869 17.221 16.331 16.7991C16.7838 16.3858 17.2603 15.9785 17.7543 15.5797L17.7549 15.5791V15.5791C18.2942 15.1439 18.8435 14.7228 19.397 14.3188C19.5503 14.2067 19.6598 14.1273 19.7253 14.0804C19.799 14.0275 19.8627 13.9822 19.9164 13.9439C22.2483 13.9275 23.9492 14.0802 25.3299 14.2042L25.4964 14.2192H25.4986C30.8575 14.6993 34.8626 15.7288 37.2269 16.489C37.6865 16.6369 38.0822 16.7737 38.4125 16.8939C38.7293 17.0092 38.9989 17.1148 39.2091 17.2005L39.2097 17.2008C44.103 19.1994 47.1578 22.0543 48.5661 24.4453C48.8315 24.896 49.0364 25.3275 49.182 25.7305C49.3226 26.1194 49.4069 26.477 49.4361 26.7949L49.4364 26.7974ZM16.1749 14.0986C15.5285 14.1437 14.873 14.1973 14.2126 14.2614L14.21 14.2615C13.7847 14.3029 13.3338 14.368 12.8658 14.4558C12.3939 14.5443 11.9058 14.6555 11.4103 14.7879C8.86297 15.4692 6.10219 16.7145 4.25767 18.3636C3.8134 18.7608 3.33647 19.2898 2.94866 19.9126C2.50038 20.6327 2.17332 21.4769 2.16593 22.3789C2.15861 23.2743 2.46948 24.2481 3.29628 25.2475C3.78665 25.8401 4.45605 26.4403 5.34353 27.0374C5.80716 27.3494 6.28648 27.6479 6.80277 27.9392V27.9415C7.055 28.0838 7.31229 28.2218 7.57684 28.356C7.57923 28.0707 7.59317 27.7904 7.61682 27.5165C7.74495 26.0287 8.15444 24.7405 8.53711 23.8414H8.53718L8.53739 23.8407C8.83622 23.139 9.192 22.4435 9.58918 21.7619C9.98121 21.0891 10.409 20.4388 10.8586 19.8162C12.5672 17.4501 14.6095 15.4455 16.1749 14.0986ZM41.1496 36.8842C39.1531 37.563 36.7904 38.2231 33.9965 38.7176C31.2131 39.2103 27.9978 39.5382 24.2849 39.5543H24.2827L24.2257 39.5544C23.4193 39.5566 22.6574 39.5303 21.9405 39.4811C21.218 39.4314 20.5231 39.3578 19.8599 39.2656C16.4651 38.793 14.0399 37.8338 12.9038 37.135L12.9023 37.134C12.4637 36.8642 12.0569 36.5851 11.6801 36.298C11.3016 36.0095 10.9563 35.7155 10.6419 35.4174C9.09921 33.9546 8.25776 32.3636 7.86024 30.8107C5.77617 29.9726 4.15376 29.0522 2.9283 28.004C1.61352 26.8795 0.756802 25.6133 0.281841 24.1534V24.1526L0.281559 24.1527C0.119578 23.6544 0.0315836 23.16 0.00701543 22.6728C-0.0172007 22.1894 0.0219394 21.7146 0.114158 21.2519C0.573914 18.9469 2.35873 16.9702 4.11426 15.7034V15.7035L4.11497 15.7027C4.37276 15.5168 4.66835 15.322 4.99562 15.124C5.31219 14.9324 5.67318 14.7299 6.07437 14.521C8.07382 13.4795 10.8588 12.4209 13.7158 12.0301C14.7256 11.892 15.724 11.797 16.704 11.7371C17.6206 11.6809 18.5368 11.655 19.4432 11.6523C20.5701 10.9012 21.7139 10.2047 22.8653 9.55942C24.0628 8.88826 25.2665 8.27345 26.4664 7.71118C32.5563 4.85674 38.5868 3.32724 43.2409 2.59812C43.2948 2.5479 43.3476 2.5052 43.3988 2.46974C43.6897 2.26884 44.0437 2.18379 44.3569 2.18379H44.3572V2.18611C44.7835 2.18611 45.1677 2.3662 45.4447 2.65658C45.7214 2.94619 45.892 3.34617 45.8924 3.78701H45.8946V3.78765V3.78793H45.8924C45.8923 4.22899 45.7216 4.62911 45.4447 4.91893C45.1676 5.20903 44.7834 5.38897 44.3577 5.38925V5.3915H44.3569H44.3564V5.38925C44.1255 5.38911 43.908 5.33692 43.7144 5.24378C43.6656 5.22021 43.6192 5.19496 43.5759 5.16816C43.4602 5.09662 43.3544 5.00981 43.2608 4.91013C42.3239 5.02501 41.3752 5.17175 40.4176 5.34937C39.3474 5.54788 38.2877 5.78016 37.2436 6.04444C32.4027 7.27019 27.5904 9.23231 23.2748 11.7758C23.6635 11.8027 24.0419 11.833 24.41 11.8663C25.2591 11.9433 26.0937 12.04 26.8977 12.1481C27.0359 12.0487 27.1927 11.9557 27.3649 11.869C27.6071 11.7471 27.8852 11.6359 28.1863 11.5346C29.6492 11.0425 31.6855 10.7938 32.7174 10.6955C35.3029 10.4491 37.3571 10.3542 39.2285 10.4424C41.1191 10.5316 42.8167 10.8049 44.6714 11.2942L44.68 11.2964H44.6823C45.9786 11.6389 47.1458 12.0554 48.1945 12.5274C49.2441 12.9995 50.164 13.5242 50.9678 14.0833C55.1792 17.0134 56.2799 20.9298 56.083 23.3196L56.0828 23.3225C56.0504 23.7141 55.9943 24.1289 55.9097 24.5645C55.8264 24.9926 55.7169 25.4262 55.5767 25.8596C54.851 28.1029 53.2936 30.4429 50.2657 32.2324C49.9383 32.4261 49.6236 32.6003 49.3191 32.758C49.036 32.9046 48.7372 33.0492 48.423 33.193C48.177 33.3859 47.9087 33.5813 47.6208 33.778C47.3228 33.9817 47.0103 34.1808 46.6862 34.3753C45.032 35.3676 43.074 36.23 41.1496 36.8842Z" fill="#0095DA"/>
<path fill-rule="evenodd" clip-rule="evenodd" d="M32.5848 24.0622V24.0625H32.5827C32.5827 25.3538 32.0602 26.5215 31.2156 27.3654C30.3711 28.2092 29.2028 28.7312 27.9108 28.7313V28.7335H27.9101H27.9098V28.7313C26.6176 28.7313 25.4492 28.2092 24.6046 27.3653C23.7601 26.5213 23.2377 25.3538 23.2375 24.0629H23.2354V24.0623V24.062H23.2375C23.2376 22.7707 23.7602 21.6031 24.6048 20.7591C25.4492 19.9153 26.6175 19.3933 27.9096 19.3932V19.3909H27.9101H27.9103V19.3932C29.2026 19.3932 30.3712 19.9154 31.2158 20.7592C32.0603 21.6031 32.5827 22.7706 32.5827 24.0617H32.5848V24.0622Z" fill="#00A651"/>
</svg>
